<svg id="Layer_1" data-name="Layer 1" xmlns="http://www.w3.org/2000/svg" viewBox="0 0 15 15"><defs><style>.cls-1{fill:#26d19e;}.cls-2{fill:none;stroke:#fff;stroke-miterlimit:10;stroke-width:0.5px;}</style></defs><path class="cls-1" d="M6.88,7.75,0,3.73V3.55A1.37,1.37,0,0,1,1.37,2.18H13.63A1.36,1.36,0,0,1,15,3.44L7.52,7.78A.49.49,0,0,1,6.88,7.75Z"/><path class="cls-1" d="M15,4v7.87a1.37,1.37,0,0,1-1.37,1.37H1.37A1.37,1.37,0,0,1,0,11.87V4.31L6.59,8.16a1,1,0,0,0,.64.23.93.93,0,0,0,.58-.2Z"/><path class="cls-2" d="M32.22-2.65,24.06,2.1a.75.75,0,0,1-.94,0L14.83-2.75"/></svg>