<svg width="56" height="40" viewBox="0 0 56 40" fill="none" xmlns="http://www.w3.org/2000/svg">
<rect x="0.5" y="0.5" width="55" height="39" rx="19.5" fill="#EBF3F1" stroke="#26D19E"/>
<g clip-path="url(#clip0_339_26)">
<path d="M39.4686 12.712H28.7502C28.5105 11.6611 27.9076 10.721 27.0412 10.0471C26.1748 9.3732 25.0969 9.00586 23.9856 9.00586C22.8743 9.00586 21.7964 9.3732 20.93 10.0471C20.0636 10.721 19.4607 11.6611 19.221 12.712H16.0514C15.7726 12.712 15.5051 12.8192 15.308 13.0102C15.1108 13.2011 15 13.4601 15 13.7302C15 14.0002 15.1108 14.2592 15.308 14.4501C15.5051 14.6411 15.7726 14.7484 16.0514 14.7484H19.2006C19.4403 15.7992 20.0432 16.7393 20.9095 17.4132C21.7759 18.0871 22.8539 18.4545 23.9652 18.4545C25.0764 18.4545 26.1544 18.0871 27.0208 17.4132C27.8872 16.7393 28.4901 15.7992 28.7298 14.7484H39.4482C39.727 14.7484 39.9945 14.6411 40.1916 14.4501C40.3888 14.2592 40.4996 14.0002 40.4996 13.7302C40.4996 13.4601 40.3888 13.2011 40.1916 13.0102C39.9945 12.8192 39.727 12.712 39.4482 12.712H39.4686ZM23.9575 16.414C23.4166 16.4126 22.8879 16.2584 22.4361 15.9704C21.9842 15.6824 21.6289 15.2731 21.4136 14.7926C21.1983 14.312 21.1323 13.7811 21.2238 13.2649C21.3152 12.7486 21.5601 12.2693 21.9285 11.8858C22.2969 11.5022 22.7727 11.2309 23.2978 11.1052C23.8229 10.9795 24.3745 11.0048 24.885 11.178C25.3955 11.3511 25.8428 11.6647 26.1721 12.0802C26.5014 12.4958 26.6985 12.9953 26.7392 13.5176C26.7443 13.5851 26.7443 13.6528 26.7392 13.7203C26.7455 13.7943 26.7455 13.8687 26.7392 13.9427C26.6791 14.6171 26.3601 15.2451 25.845 15.7026C25.33 16.1602 24.6565 16.4141 23.9575 16.414Z" fill="#262626"/>
<path d="M39.4686 25.1261H36.3194C36.0798 24.0753 35.4769 23.1352 34.6105 22.4613C33.7441 21.7874 32.6661 21.42 31.5549 21.42C30.4436 21.42 29.3656 21.7874 28.4992 22.4613C27.6328 23.1352 27.0299 24.0753 26.7903 25.1261H16.0719C15.793 25.1261 15.5256 25.2334 15.3284 25.4244C15.1312 25.6153 15.0204 25.8743 15.0204 26.1443C15.0204 26.4144 15.1312 26.6734 15.3284 26.8643C15.5256 27.0553 15.793 27.1625 16.0719 27.1625H26.7903C27.0299 28.2134 27.6328 29.1535 28.4992 29.8274C29.3656 30.5013 30.4436 30.8686 31.5549 30.8686C32.6661 30.8686 33.7441 30.5013 34.6105 29.8274C35.4769 29.1535 36.0798 28.2134 36.3194 27.1625H39.4686C39.7475 27.1625 40.0149 27.0553 40.2121 26.8643C40.4093 26.6734 40.52 26.4144 40.52 26.1443C40.52 25.8743 40.4093 25.6153 40.2121 25.4244C40.0149 25.2334 39.7475 25.1261 39.4686 25.1261ZM31.5625 28.8381C30.8653 28.8357 30.1943 28.5807 29.6814 28.1234C29.1686 27.666 28.8509 27.0394 28.791 26.3668C28.7858 26.2993 28.7858 26.2316 28.791 26.1641C28.786 26.0967 28.786 26.0289 28.791 25.9615C28.8356 25.4423 29.0353 24.9469 29.3656 24.5358C29.696 24.1246 30.1427 23.8154 30.6514 23.646C31.1601 23.4765 31.7087 23.4541 32.2304 23.5814C32.752 23.7087 33.2241 23.9803 33.5891 24.3631C33.954 24.7458 34.1961 25.2231 34.2857 25.7368C34.3753 26.2504 34.3087 26.7783 34.0938 27.2558C33.8789 27.7334 33.5252 28.1402 33.0757 28.4264C32.6262 28.7126 32.1005 28.866 31.5625 28.8678V28.8381Z" fill="#262626"/>
</g>
<defs>
<clipPath id="clip0_339_26">
<rect width="25.52" height="22" fill="white" transform="translate(15 9)"/>
</clipPath>
</defs>
</svg>
