<svg id="Layer_1" data-name="Layer 1" xmlns="http://www.w3.org/2000/svg" viewBox="0 0 9.67 13.02"><defs><style>.cls-1{fill:#26d19e;}</style></defs><path class="cls-1" d="M4.84,7.44A2.6,2.6,0,1,1,7.43,4.85,2.59,2.59,0,0,1,4.84,7.44ZM4.84,3A1.89,1.89,0,1,0,6.72,4.85,1.89,1.89,0,0,0,4.84,3Z"/><path class="cls-1" d="M4.84,13a.44.44,0,0,1-.35-.18l-.73-1.07C3.24,11,2.55,10,1.83,9l-.17-.22A8.36,8.36,0,0,1,.21,6.26a4.84,4.84,0,1,1,9.14.31A9.34,9.34,0,0,1,8,8.82L7.86,9c-.43.58-.85,1.19-1.26,1.79L5.18,12.84a.36.36,0,0,1-.34.18Zm-.24-.59ZM4.84.73A4.13,4.13,0,0,0,.71,4.85a4.06,4.06,0,0,0,.18,1.2,7.87,7.87,0,0,0,1.34,2.3l.17.22c.73,1,1.42,2,1.94,2.8l.5.72L6,10.37c.41-.61.83-1.22,1.27-1.82l.12-.15A9.18,9.18,0,0,0,8.69,6.32,4.12,4.12,0,0,0,4.84.73Z"/></svg>