<svg id="Layer_1" data-name="Layer 1" xmlns="http://www.w3.org/2000/svg" viewBox="0 0 34 34"><defs><style>.cls-1{fill:#26d19e;}.cls-2{fill:#fdfdfd;}</style></defs><circle class="cls-1" cx="17" cy="17" r="17"/><path class="cls-2" d="M18.14,14.79c.17-.19.31-.39.48-.56a2.7,2.7,0,0,1,1.93-.75,4.5,4.5,0,0,1,1.21.14,2.38,2.38,0,0,1,1.68,1.77,7.24,7.24,0,0,1,.22,2c0,1.44,0,2.88,0,4.32,0,.13,0,.17-.17.17H21.27c-.13,0-.16,0-.16-.16,0-1.37,0-2.74,0-4.11a3.52,3.52,0,0,0-.12-1,1.15,1.15,0,0,0-1.26-.89,1.38,1.38,0,0,0-1.45,1.37c0,.21,0,.43,0,.64,0,1.33,0,2.67,0,4,0,.13,0,.17-.17.17H15.84c-.12,0-.15,0-.15-.16v-7.9c0-.13,0-.16.16-.16H18c.13,0,.16,0,.16.16C18.13,14.16,18.14,14.47,18.14,14.79Z"/><path class="cls-2" d="M14.08,17.8c0,1.3,0,2.61,0,3.91,0,.15,0,.19-.19.19H11.67c-.12,0-.15,0-.15-.15V13.83c0-.11,0-.15.14-.15h2.25c.15,0,.17.05.17.18Z"/><path class="cls-2" d="M14.28,11.06A1.48,1.48,0,1,1,12.8,9.59,1.49,1.49,0,0,1,14.28,11.06Z"/></svg>