<svg id="Layer_1" data-name="Layer 1" xmlns="http://www.w3.org/2000/svg" viewBox="0 0 34 34"><defs><style>.cls-1{fill:#26d19e;}.cls-2{fill:#fff;}</style></defs><circle class="cls-1" cx="17" cy="17" r="17"/><path class="cls-2" d="M22.73,11.66a.26.26,0,0,0-.19-.21.94.94,0,0,0-.53,0S10.16,15.74,9.48,16.22a.49.49,0,0,0-.22.23c-.12.33.25.48.25.48l3.05,1a.42.42,0,0,0,.16,0c.69-.44,7-4.42,7.35-4.55.06,0,.1,0,.09,0-.15.51-5.61,5.37-5.61,5.37a.19.19,0,0,0,0,.06h0l-.28,3s-.12.93.81,0c.65-.65,1.29-1.2,1.6-1.47,1.05.73,2.18,1.53,2.67,1.95a.89.89,0,0,0,.62.24c.46,0,.59-.53.59-.53s2.16-8.69,2.23-9.85c0-.12,0-.19,0-.27A.91.91,0,0,0,22.73,11.66Z"/></svg>