<svg id="Layer_1" data-name="Layer 1" xmlns="http://www.w3.org/2000/svg" viewBox="0 0 25.6 20.88"><path d="M11.66,4.37V15.15a.78.78,0,0,0,.77.78h.92a.78.78,0,0,0,.77-.78V4.37L16.73,7a.76.76,0,0,0,1.09,0l.65-.64a.77.77,0,0,0,0-1.09l-5-5a.8.8,0,0,0-1.13,0l-5,5a.77.77,0,0,0,0,1.09L8,7A.76.76,0,0,0,9.05,7Z"/><path d="M23,13.06v4.46a.8.8,0,0,1-.8.8H3.36a.8.8,0,0,1-.8-.8V13.06a.8.8,0,0,0-.8-.8H.8a.8.8,0,0,0-.8.8V18a2.92,2.92,0,0,0,2.92,2.92H22.68A2.92,2.92,0,0,0,25.6,18v-4.9a.8.8,0,0,0-.8-.8h-1A.8.8,0,0,0,23,13.06Z"/></svg>